<svg xmlns="http://www.w3.org/2000/svg" width="117.72" height="59.861" viewBox="0 0 117.72 59.861">
  <g id="Logo" transform="translate(-381.113 -247.451)">
    <path id="Path_228" data-name="Path 228" d="M502.449,243.223h.767v-2.8h.994v-.679h-2.755v.679h.994Z" transform="translate(-9.702 7.711)" fill="#fff"/>
    <path id="Path_229" data-name="Path 229" d="M505.278,240.552h.009l.882,2.672h.585l.915-2.672h.01v2.672h.767V239.74h-1.156l-.807,2.273h-.01l-.8-2.273h-1.16v3.483h.767Z" transform="translate(-9.614 7.711)" fill="#fff"/>
    <path id="Path_230" data-name="Path 230" d="M480.564,258.679c-9.414,0-15.291,6.956-15.291,15.41,0,8.514,5.757,15.41,15.35,15.41s15.41-6.9,15.41-15.41C496.034,265.635,489.978,258.679,480.564,258.679Zm.06,24.1c-5.336,0-8.035-4.2-8.035-8.694,0-4.437,2.758-8.755,8.035-8.755,4.917,0,8.035,4.318,8.035,8.755C488.658,278.586,485.96,282.783,480.623,282.783Z" transform="translate(-0.934 -2.779)" fill="#fff"/>
    <path id="Path_231" data-name="Path 231" d="M449.589,265.9v12.928c0,7.467,4.247,11.106,10.744,10.926a10.989,10.989,0,0,0,6.291-2.3,33.249,33.249,0,0,1-3.529-5.734,5.335,5.335,0,0,1-2.779,1.19c-1.75,0-3.383-1.223-3.383-4.077V265.9h8.316v-6.373h-8.255v-8.5l-7.405.789v7.709h-7.874l2.29,6.373Z" transform="translate(-1.612 -3)" fill="#fff"/>
    <path id="Path_232" data-name="Path 232" d="M439.773,259.971c-7.234,2.6-14.07,9.461-17.337,15.321-2.813-5.491-7.8-9.949-10.641-12.153l-3.931,5.53c6.71,5.442,10.593,11.022,10.395,19.233,0,10.022-5.646,16.849-5.947,16.963,6.176-2.823,11.276-3.711,12.6-17.224,2.011-13.684,12.43-19.145,17.116-21.187Z" transform="translate(-2.586 -2.742)" fill="#fff"/>
    <path id="Path_233" data-name="Path 233" d="M398.884,282.634c-7.727-1.221-7.841-7.528-7.532-10.183a8.5,8.5,0,0,1,2.991-5.152c1.991-1.571,3.815-2.26,7.659-1.785a13.857,13.857,0,0,1,4.118,1.383l3.917-5.5a17.872,17.872,0,0,0-6.446-2.683c-5.649-.83-10.045.411-13.531,3.161a15.426,15.426,0,0,0-5.573,9.778,18.625,18.625,0,0,0,1.015,8.433c1.368,3.607,4.614,8.161,12.3,9.376a14.114,14.114,0,0,0,2.148.153,15.134,15.134,0,0,0,11.373-4.929l-5.115-4.649A8.493,8.493,0,0,1,398.884,282.634Z" transform="translate(-3.262 -2.786)" fill="#fff"/>
    <path id="Path_234" data-name="Path 234" d="M472.325,299.306a3.923,3.923,0,0,0-3.4-1.734,5.2,5.2,0,0,0-5.572,5.593c0,3.751,2.342,5.7,5.507,5.681a4.065,4.065,0,0,0,3.469-1.887l.13,1.561h2.494V297.832h-2.537Zm-3.166,7.111a3.242,3.242,0,0,1,0-6.482C473.322,299.935,473.322,306.417,469.16,306.417Z" transform="translate(-0.989 -1.66)" fill="#fff"/>
    <path id="Path_235" data-name="Path 235" d="M457.948,297.674a3.818,3.818,0,0,0-3.529,1.924c-.6-1.454-2.4-1.94-3.666-1.94-1.005,0-4.736.411-4.844,5.3v5.4h2.608v-5.645a2.408,2.408,0,0,1,2.246-2.652c1.433,0,2.159,1.263,2.159,2.652v5.645h2.608v-5.645a2.4,2.4,0,0,1,2.288-2.608c1.411,0,1.989,1.176,1.989,2.566v5.687h2.609v-5.687C462.417,299.514,460.941,297.674,457.948,297.674Z" transform="translate(-1.491 -1.658)" fill="#fff"/>
    <path id="Path_236" data-name="Path 236" d="M439.654,301.911c-1.391-.089-2.031-.486-2.031-1.192,0-.684.707-1.081,1.988-1.081a3.671,3.671,0,0,1,2.693.971l1.5-1.766a5.85,5.85,0,0,0-4.241-1.435c-1.988,0-4.591.883-4.591,3.4,0,2.473,2.451,3.224,4.5,3.379,1.546.088,2.165.4,2.165,1.148,0,.794-.951,1.325-1.966,1.3a5.977,5.977,0,0,1-3.754-1.524l-1.323,1.922a6.369,6.369,0,0,0,5.034,1.942c3.113,0,4.681-1.655,4.681-3.577C444.314,302.508,441.709,302.044,439.654,301.911Z" transform="translate(-1.817 -1.665)" fill="#fff"/>
    <path id="Path_237" data-name="Path 237" d="M479.865,298.882l-.2-1.241h-2.46v10.732h2.656v-5.659a2.476,2.476,0,0,1,2.677-2.722,2.654,2.654,0,0,1,1.917.7l1.2-2.308a4.068,4.068,0,0,0-2.764-1.024A3.162,3.162,0,0,0,479.865,298.882Z" transform="translate(-0.59 -1.666)" fill="#fff"/>
    <path id="Path_238" data-name="Path 238" d="M492.19,306.187a1.333,1.333,0,0,1-1.393-1.524v-4.638h2.982V297.74h-2.961v-3.048l-2.656.283v2.765h-2v2.285h2v4.638c0,2.677,1.525,4.005,3.854,3.919a5.914,5.914,0,0,0,2.2-.458l-.74-2.263A3.043,3.043,0,0,1,492.19,306.187Z" transform="translate(-0.333 -1.743)" fill="#fff"/>
  </g>
</svg>
